<svg xmlns="http://www.w3.org/2000/svg" viewBox="0 0 110 92">
  <path fill="#0B3D91" d="M93.9,27.6c-1.7,1-3,2.5-3.9,4.3c-2.2,4.4-1.4,10,1.8,13.2c0.5,0.5,1,0.9,1.6,1.2c3.5,2,8,1.7,11.3-0.9
    c2.3-1.7,3.8-4.4,4.1-7.3c0.1-1-0.1-1.9-0.5-2.8c-0.4-0.9-0.9-1.7-1.6-2.4c-0.7-0.7-1.5-1.3-2.4-1.7C100.9,28.9,97.1,28.6,93.9,27.6z"/>
  <path fill="#FFFFFF" d="M108.2,35c0.1,1.4-0.3,2.9-1.1,4.1c-1.6,2.3-4.4,3.3-7.1,2.6c-1.6-0.4-3-1.3-3.9-2.5c-1.9-2.5-2.1-6.4-0.3-9.2
    c1.8-3,5.4-4.3,8.5-3.2C107.4,28.1,108.5,31.7,108.2,35z"/>
  <path fill="#FC3D21" d="M44.5,7.4c-2.7-2-6.3-2.9-9.7-2.5c-3.3,0.4-6.3,1.8-8.5,4.1c-1.4,1.4-2.4,3.1-3,5c-0.6,1.9-0.8,3.9-0.6,5.9
    c0.4,4.4,2.8,8.4,6.4,10.8c3.6,2.4,8.3,3.1,12.5,1.8c2.1-0.6,4-1.7,5.6-3.3c1.7-1.6,2.8-3.7,3.4-5.9c0.5-2.2,0.5-4.5-0.1-6.7
    C49.6,12.7,47.5,9.5,44.5,7.4z"/>
  <path fill="#FFFFFF" d="M36.3,8.7c2.6-0.4,5.3,0.2,7.5,1.6c2.1,1.3,3.8,3.4,4.5,5.8c1.1,3.3,0.4,7-1.7,9.8c-2.1,2.8-5.6,4.4-9.1,4.2
    c-3.5-0.2-6.7-2.2-8.4-5.2c-1.7-3-1.7-6.8,0-9.8C30.5,11.8,33.2,9.3,36.3,8.7z"/>
  <path fill="#0B3D91" d="M55.3,26.8c-3.2-2.9-7.9-3.8-12-2.4c-3.8,1.3-6.6,4.1-7.8,7.8c-1.2,3.6-0.8,7.6,1.2,10.8
    c1.2,1.9,2.8,3.5,4.9,4.5c2.1,1,4.4,1.5,6.7,1.4c4.9-0.2,9.3-3,11.7-7.4C62.5,36.2,60.7,31.1,55.3,26.8z"/>
  <path fill="#FFFFFF" d="M54.6,32.4c-0.9-0.8-1.9-1.4-3-1.9c-2.6-1.1-5.7-1-8.2,0.3c-2.5,1.3-4.3,3.6-4.9,6.3c-0.7,2.7-0.1,5.6,1.6,7.9
    c1.7,2.3,4.4,3.6,7.2,3.6c2.8-0.1,5.6-1.6,7.2-4c1.6-2.4,1.9-5.6,0.8-8.3C55.9,34.9,55.4,33.6,54.6,32.4z"/>
  <path fill="#0B3D91" d="M74.8,33.8c-1.3-2.5-3.3-4.7-5.8-6.1c-2.4-1.4-5.2-2.1-8-2.1c-3,0-5.9,0.9-8.4,2.5c-2.5,1.6-4.4,3.9-5.6,6.6
    c-1.2,2.7-1.5,5.7-1,8.6c0.5,2.9,1.9,5.6,3.9,7.8c2,2.2,4.6,3.8,7.5,4.6c2.9,0.8,5.9,0.7,8.8-0.1c5.8-1.6,10.2-6.5,11.2-12.4
    C77.9,39.9,76.9,36.7,74.8,33.8z"/>
  <path fill="#FFFFFF" d="M67.8,35.3c-1.2-0.7-2.5-1.2-3.9-1.2c-1.5,0-3,0.3-4.3,1c-1.3,0.7-2.4,1.7-3.1,3c-0.7,1.3-1.1,2.7-1.1,4.2
    c0,1.5,0.4,2.9,1.1,4.2c0.7,1.3,1.8,2.3,3.1,3c1.3,0.7,2.8,1,4.3,1c1.5,0,2.9-0.3,4.2-1c1.3-0.7,2.4-1.7,3.1-3c0.7-1.3,1.1-2.7,1.1-4.2
    c0-1.5-0.4-2.9-1.1-4.2C70.1,37,69.1,36,67.8,35.3z"/>
  <path fill="#0B3D91" d="M81.8,29.8c-0.6-3-2.1-5.7-4.4-7.9c-2.2-2.1-5-3.5-8-4.1c-3-0.6-6.2-0.4-9.1,0.8c-2.9,1.1-5.3,3.1-7,5.6
    c-1.8,2.5-2.7,5.5-2.7,8.5c0,3,0.9,6,2.7,8.5c1.7,2.5,4.2,4.4,7,5.6c2.9,1.2,6.1,1.5,9.1,0.8c3-0.6,5.8-2.1,8-4.1c2.2-2.1,3.8-4.9,4.4-7.9
    C82.4,33.1,82.4,31.4,81.8,29.8z"/>
  <path fill="#FFFFFF" d="M75.2,30.6c-0.3-1.5-1-2.9-2-4.1c-1-1.2-2.3-2.1-3.8-2.6c-1.5-0.5-3-0.6-4.5-0.3c-1.5,0.3-2.9,1-4.1,2
    c-1.2,1-2.1,2.3-2.6,3.8c-0.5,1.5-0.6,3-0.3,4.5c0.3,1.5,1,2.9,2,4.1c1,1.2,2.3,2.1,3.8,2.6c1.5,0.5,3,0.6,4.5,0.3
    c1.5-0.3,2.9-1,4.1-2c1.2-1,2.1-2.3,2.6-3.8C75.4,33.6,75.5,32.1,75.2,30.6z"/>
  <path fill="#0B3D91" d="M19.5,81.9c0,0,1.2-2.3,1.2-2.3c0.1-0.1,0.1-0.1,0.1-0.2c0-0.1,0-0.1-0.1-0.2c0,0-0.8-0.2-0.8-0.2
    c-0.1,0-0.2,0-0.2,0.1c0,0-1.2,2.3-1.2,2.3c-0.1,0.1-0.1,0.1-0.1,0.2c0,0.1,0,0.1,0.1,0.2c0,0,0.8,0.2,0.8,0.2
    C19.4,82,19.5,82,19.5,81.9z"/>
  <path fill="#0B3D91" d="M39,82.1c0,0,1.2-2.3,1.2-2.3c0.1-0.1,0.1-0.1,0.1-0.2c0-0.1,0-0.1-0.1-0.2c0,0-0.8-0.2-0.8-0.2
    c-0.1,0-0.2,0-0.2,0.1c0,0-1.2,2.3-1.2,2.3c-0.1,0.1-0.1,0.1-0.1,0.2c0,0.1,0,0.1,0.1,0.2c0,0,0.8,0.2,0.8,0.2
    C38.9,82.2,39,82.2,39,82.1z"/>
  <path fill="#0B3D91" d="M58.5,82.3c0,0,1.2-2.3,1.2-2.3c0.1-0.1,0.1-0.1,0.1-0.2c0-0.1,0-0.1-0.1-0.2c0,0-0.8-0.2-0.8-0.2
    c-0.1,0-0.2,0-0.2,0.1c0,0-1.2,2.3-1.2,2.3c-0.1,0.1-0.1,0.1-0.1,0.2c0,0.1,0,0.1,0.1,0.2c0,0,0.8,0.2,0.8,0.2
    C58.4,82.4,58.5,82.4,58.5,82.3z"/>
  <path fill="#0B3D91" d="M78.2,82.4c0,0,1.2-2.3,1.2-2.3c0.1-0.1,0.1-0.1,0.1-0.2c0-0.1,0-0.1-0.1-0.2c0,0-0.8-0.2-0.8-0.2
    c-0.1,0-0.2,0-0.2,0.1c0,0-1.2,2.3-1.2,2.3c-0.1,0.1-0.1,0.1-0.1,0.2c0,0.1,0,0.1,0.1,0.2c0,0,0.8,0.2,0.8,0.2
    C78.1,82.5,78.2,82.5,78.2,82.4z"/>
  <path fill="#0B3D91" d="M98.6,82.5c0,0,1.2-2.3,1.2-2.3c0.1-0.1,0.1-0.1,0.1-0.2c0-0.1,0-0.1-0.1-0.2c0,0-0.8-0.2-0.8-0.2
    c-0.1,0-0.2,0-0.2,0.1c0,0-1.2,2.3-1.2,2.3c-0.1,0.1-0.1,0.1-0.1,0.2c0,0.1,0,0.1,0.1,0.2c0,0,0.8,0.2,0.8,0.2
    C98.5,82.6,98.6,82.6,98.6,82.5z"/>
  <path fill="#0B3D91" d="M13.2,45.9c-0.1,0.1-0.1,0.1-0.1,0.2c0,0.1,0.1,0.1,0.1,0.2c0.1,0,2.1,0.4,2.1,0.4c0.1,0,0.1,0,0.2-0.1
    c0.1-0.1,0.1-0.1,0.1-0.2c0,0,0-0.8,0-0.8c0-0.1-0.1-0.2-0.2-0.2c0,0-2.1-0.4-2.1-0.4c-0.1,0-0.1,0-0.2,0.1c-0.1,0.1-0.1,0.1-0.1,0.2
    C13.2,45.1,13.2,45.9,13.2,45.9z"/>
  <path fill="#0B3D91" d="M5.6,34.7c-0.1,0.1-0.1,0.2-0.1,0.2c0,0.1,0.1,0.1,0.1,0.2c0.1,0,2.1,0.4,2.1,0.4c0.1,0,0.1,0,0.2-0.1
    c0.1-0.1,0.1-0.1,0.1-0.2c0,0,0-0.8,0-0.8c0-0.1-0.1-0.2-0.2-0.2c0,0-2.1-0.4-2.1-0.4c-0.1,0-0.1,0-0.2,0.1c-0.1,0.1-0.1,0.1-0.1,0.2
    C5.6,34,5.6,34.7,5.6,34.7z"/>
  <path fill="#0B3D91" d="M1.8,23.6c-0.1,0.1-0.1,0.2-0.1,0.2c0,0.1,0.1,0.1,0.1,0.2c0.1,0,2.1,0.4,2.1,0.4c0.1,0,0.1,0,0.2-0.1
    c0.1-0.1,0.1-0.1,0.1-0.2c0,0,0-0.8,0-0.8c0-0.1-0.1-0.2-0.2-0.2c0,0-2.1-0.4-2.1-0.4c-0.1,0-0.1,0-0.2,0.1c-0.1,0.1-0.1,0.1-0.1,0.2
    C1.8,22.8,1.8,23.6,1.8,23.6z"/>
  <path fill="#FFFFFF" d="M24.7,87.8c0,0-1.2,0.4-1.2,0.4c-0.1,0-0.2,0.1-0.1,0.2c0,0.1,0.1,0.2,0.2,0.1c0,0,1.2-0.4,1.2-0.4
    c0.1,0,0.2-0.1,0.1-0.2C24.9,87.9,24.8,87.8,24.7,87.8z"/>
  <path fill="#FFFFFF" d="M31,87.8c0,0-1.2,0.4-1.2,0.4c-0.1,0-0.2,0.1-0.1,0.2c0,0.1,0.1,0.2,0.2,0.1c0,0,1.2-0.4,1.2-0.4
    c0.1,0,0.2-0.1,0.1-0.2C31.2,87.9,31.1,87.8,31,87.8z"/>
  <path fill="#FFFFFF" d="M37.3,87.8c0,0-1.2,0.4-1.2,0.4c-0.1,0-0.2,0.1-0.1,0.2c0,0.1,0.1,0.2,0.2,0.1c0,0,1.2-0.4,1.2-0.4
    c0.1,0,0.2-0.1,0.1-0.2C37.5,87.9,37.4,87.8,37.3,87.8z"/>
  <path fill="#FFFFFF" d="M43.6,87.8c0,0-1.2,0.4-1.2,0.4c-0.1,0-0.2,0.1-0.1,0.2c0,0.1,0.1,0.2,0.2,0.1c0,0,1.2-0.4,1.2-0.4
    c0.1,0,0.2-0.1,0.1-0.2C43.8,87.9,43.7,87.8,43.6,87.8z"/>
  <path fill="#FFFFFF" d="M49.9,87.8c0,0-1.2,0.4-1.2,0.4c-0.1,0-0.2,0.1-0.1,0.2c0,0.1,0.1,0.2,0.2,0.1c0,0,1.2-0.4,1.2-0.4
    c0.1,0,0.2-0.1,0.1-0.2C50.1,87.9,50,87.8,49.9,87.8z"/>
  <path fill="#FFFFFF" d="M56.2,87.8c0,0-1.2,0.4-1.2,0.4c-0.1,0-0.2,0.1-0.1,0.2c0,0.1,0.1,0.2,0.2,0.1c0,0,1.2-0.4,1.2-0.4
    c0.1,0,0.2-0.1,0.1-0.2C56.4,87.9,56.3,87.8,56.2,87.8z"/>
  <path fill="#FFFFFF" d="M62.5,87.8c0,0-1.2,0.4-1.2,0.4c-0.1,0-0.2,0.1-0.1,0.2c0,0.1,0.1,0.2,0.2,0.1c0,0,1.2-0.4,1.2-0.4
    c0.1,0,0.2-0.1,0.1-0.2C62.7,87.9,62.6,87.8,62.5,87.8z"/>
  <path fill="#FFFFFF" d="M68.8,87.8c0,0-1.2,0.4-1.2,0.4c-0.1,0-0.2,0.1-0.1,0.2c0,0.1,0.1,0.2,0.2,0.1c0,0,1.2-0.4,1.2-0.4
    c0.1,0,0.2-0.1,0.1-0.2C69,87.9,68.9,87.8,68.8,87.8z"/>
  <path fill="#FFFFFF" d="M75.1,87.8c0,0-1.2,0.4-1.2,0.4c-0.1,0-0.2,0.1-0.1,0.2c0,0.1,0.1,0.2,0.2,0.1c0,0,1.2-0.4,1.2-0.4
    c0.1,0,0.2-0.1,0.1-0.2C75.3,87.9,75.2,87.8,75.1,87.8z"/>
  <path fill="#FFFFFF" d="M18.4,87.8c0,0-1.2,0.4-1.2,0.4c-0.1,0-0.2,0.1-0.1,0.2c0,0.1,0.1,0.2,0.2,0.1c0,0,1.2-0.4,1.2-0.4
    c0.1,0,0.2-0.1,0.1-0.2C18.6,87.9,18.5,87.8,18.4,87.8z"/>
  <path fill="#FFFFFF" d="M81.4,87.8c0,0-1.2,0.4-1.2,0.4c-0.1,0-0.2,0.1-0.1,0.2c0,0.1,0.1,0.2,0.2,0.1c0,0,1.2-0.4,1.2-0.4
    c0.1,0,0.2-0.1,0.1-0.2C81.6,87.9,81.5,87.8,81.4,87.8z"/>
  <path fill="#FFFFFF" d="M87.7,87.8c0,0-1.2,0.4-1.2,0.4c-0.1,0-0.2,0.1-0.1,0.2c0,0.1,0.1,0.2,0.2,0.1c0,0,1.2-0.4,1.2-0.4
    c0.1,0,0.2-0.1,0.1-0.2C87.9,87.9,87.8,87.8,87.7,87.8z"/>
  <path fill="#FFFFFF" d="M94,87.8c0,0-1.2,0.4-1.2,0.4c-0.1,0-0.2,0.1-0.1,0.2c0,0.1,0.1,0.2,0.2,0.1c0,0,1.2-0.4,1.2-0.4
    c0.1,0,0.2-0.1,0.1-0.2C94.2,87.9,94.1,87.8,94,87.8z"/>
  <path fill="#FFFFFF" d="M100.3,87.8c0,0-1.2,0.4-1.2,0.4c-0.1,0-0.2,0.1-0.1,0.2c0,0.1,0.1,0.2,0.2,0.1c0,0,1.2-0.4,1.2-0.4
    c0.1,0,0.2-0.1,0.1-0.2C100.5,87.9,100.4,87.8,100.3,87.8z"/>
  <path fill="#FFFFFF" d="M106.6,87.8c0,0-1.2,0.4-1.2,0.4c-0.1,0-0.2,0.1-0.1,0.2c0,0.1,0.1,0.2,0.2,0.1c0,0,1.2-0.4,1.2-0.4
    c0.1,0,0.2-0.1,0.1-0.2C106.8,87.9,106.7,87.8,106.6,87.8z"/>
  <path fill="#0B3D91" d="M25.9,22.3L23,33.2c0,0-0.7,3.1,2.1,3.1l3.9,0c0,0,2.3,0.1,1.9-3.1l-2.9-10.9c0,0-0.4-1.9-1.1-1.9
    C26.3,20.4,25.9,20.8,25.9,22.3z"/>
  <path fill="#FFFFFF" d="M26.7,21.8l-3.1,11.4c0,0-0.6,2.1,1.6,2.1h3.9c0,0,1.9,0,1.5-2.1l-3.1-11.4c0,0-0.2-1.4-0.9-1.4
    C26.1,20.4,26.7,21.8,26.7,21.8z"/>
  <path fill="#FC3D21" d="M26.4,34.1l0.2-0.9c0,0-1.6-0.2-1.6-1.3c0-1.1,1.3-5.8,1.3-5.8l-1.1-0.1l-1.3,5.8c0,0-0.5,1.9,1.4,2.2
    C26.4,34.1,26.4,34.1,26.4,34.1z"/>
  <path fill="#0B3D91" d="M28.3,34.1l-0.2-0.9c0,0,1.6-0.2,1.6-1.3c0-1.1-1.3-5.8-1.3-5.8l1.1-0.1l1.3,5.8c0,0,0.5,1.9-1.4,2.2
    C28.3,34.1,28.3,34.1,28.3,34.1z"/>
  <path fill="#0B3D91" d="M28.3,21.8l-0.4,1.5c0,0,0.9,0.1,0.9,0.7c0,0.6-0.8,3.1-0.8,3.1l0.9,0.1l0.8-3.1c0,0,0.3-1-0.8-1.2
    C28.3,21.8,28.3,21.8,28.3,21.8z"/>
  <path fill="#FC3D21" d="M26.4,21.8l0.4,1.5c0,0-0.9,0.1-0.9,0.7c0,0.6,0.8,3.1,0.8,3.1l-0.9,0.1l-0.8-3.1c0,0-0.3-1,0.8-1.2
    C26.4,21.8,26.4,21.8,26.4,21.8z"/>
  <path fill="#FC3D21" d="M27.4,20.4l-0.1,0.7c0,0,1,0.2,1,0.6c0,0.4-0.2,1.9-0.2,1.9l0.7,0l0.2-1.9c0,0,0.1-0.9-0.8-1.2
    C27.4,20.4,27.4,20.4,27.4,20.4z"/>
  <path fill="#0B3D91" d="M47.5,45.4l-21.1,0c-2.6,0-4.7,2.1-4.7,4.7v1.5c0,2.6,2.1,4.7,4.7,4.7h21.1c2.6,0,4.7-2.1,4.7-4.7v-1.5
    C52.2,47.6,50.1,45.4,47.5,45.4z"/>
  <path fill="#FFFFFF" d="M47.8,52.3c0,1.2-1,2.2-2.2,2.2H28.4c-1.2,0-2.2-1-2.2-2.2v-2.2c0-1.2,1-2.2,2.2-2.2h17.2
    c1.2,0,2.2,1,2.2,2.2V52.3z"/>
  <path fill="#FC3D21" d="M44.9,50.9h-17c-0.5,0-0.8,0.4-0.8,0.8c0,0.5,0.4,0.8,0.8,0.8h17c0.5,0,0.8-0.4,0.8-0.8
    C45.7,51.3,45.4,50.9,44.9,50.9z"/>
  <path fill="#0B3D91" d="M86.8,14.7l-30.6,0c-3.6,0-6.5,2.9-6.5,6.5v2.1c0,3.6,2.9,6.5,6.5,6.5h30.6c3.6,0,6.5-2.9,6.5-6.5v-2.1
    C93.3,17.6,90.4,14.7,86.8,14.7z"/>
  <path fill="#FFFFFF" d="M87.1,25.5c0,1.7-1.4,3.1-3.1,3.1H59.1c-1.7,0-3.1-1.4-3.1-3.1v-3.1c0-1.7,1.4-3.1,3.1-3.1H84
    c1.7,0,3.1,1.4,3.1,3.1V25.5z"/>
  <path fill="#FC3D21" d="M83.2,23.3H59c-0.6,0-1.2,0.5-1.2,1.2c0,0.6,0.5,1.2,1.2,1.2h24.2c0.6,0,1.2-0.5,1.2-1.2
    C84.4,23.8,83.8,23.3,83.2,23.3z"/>
  <path fill="#0B3D91" d="M86.8,52.3l-30.6,0c-3.6,0-6.5,2.9-6.5,6.5v2.1c0,3.6,2.9,6.5,6.5,6.5h30.6c3.6,0,6.5-2.9,6.5-6.5v-2.1
    C93.3,55.2,90.4,52.3,86.8,52.3z"/>
  <path fill="#FFFFFF" d="M87.1,63.1c0,1.7-1.4,3.1-3.1,3.1H59.1c-1.7,0-3.1-1.4-3.1-3.1V60c0-1.7,1.4-3.1,3.1-3.1H84
    c1.7,0,3.1,1.4,3.1,3.1V63.1z"/>
  <path fill="#FC3D21" d="M83.2,60.9H59c-0.6,0-1.2,0.5-1.2,1.2c0,0.6,0.5,1.2,1.2,1.2h24.2c0.6,0,1.2-0.5,1.2-1.2
    C84.4,61.4,83.8,60.9,83.2,60.9z"/>
  <path fill="#0B3D91" d="M26.3,52.3l-4.3,0c-3.6,0-6.5,2.9-6.5,6.5v2.1c0,3.6,2.9,6.5,6.5,6.5h4.3c3.6,0,6.5-2.9,6.5-6.5v-2.1
    C32.8,55.2,29.9,52.3,26.3,52.3z"/>
  <path fill="#FFFFFF" d="M26.6,63.1c0,1.7-1.4,3.1-3.1,3.1h-2.2c-1.7,0-3.1-1.4-3.1-3.1V60c0-1.7,1.4-3.1,3.1-3.1h2.2
    c1.7,0,3.1,1.4,3.1,3.1V63.1z"/>
  <path fill="#FC3D21" d="M22.7,60.9h-4c-0.6,0-1.2,0.5-1.2,1.2c0,0.6,0.5,1.2,1.2,1.2h4c0.6,0,1.2-0.5,1.2-1.2
    C23.8,61.4,23.3,60.9,22.7,60.9z"/>
  <path fill="#0B3D91" d="M96.8,52.3l-4.3,0c-3.6,0-6.5,2.9-6.5,6.5v2.1c0,3.6,2.9,6.5,6.5,6.5h4.3c3.6,0,6.5-2.9,6.5-6.5v-2.1
    C103.3,55.2,100.4,52.3,96.8,52.3z"/>
  <path fill="#FFFFFF" d="M97.1,63.1c0,1.7-1.4,3.1-3.1,3.1h-2.2c-1.7,0-3.1-1.4-3.1-3.1V60c0-1.7,1.4-3.1,3.1-3.1H94
    c1.7,0,3.1,1.4,3.1,3.1V63.1z"/>
  <path fill="#FC3D21" d="M93.2,60.9h-4c-0.6,0-1.2,0.5-1.2,1.2c0,0.6,0.5,1.2,1.2,1.2h4c0.6,0,1.2-0.5,1.2-1.2
    C94.4,61.4,93.8,60.9,93.2,60.9z"/>
  <path fill="#0B3D91" d="M67.5,78.3l-36.1,0c-4.5,0-8.1,3.6-8.1,8.1v2.7c0,4.5,3.6,8.1,8.1,8.1h36.1c4.5,0,8.1-3.6,8.1-8.1v-2.7
    C75.6,81.9,72,78.3,67.5,78.3z"/>
  <path fill="#FFFFFF" d="M67.5,89.1c0,2.5-2,4.5-4.5,4.5h-27c-2.5,0-4.5-2-4.5-4.5v-4.5c0-2.5,2-4.5,4.5-4.5h27c2.5,0,4.5,2,4.5,4.5
    V89.1z"/>
  <path fill="#FC3D21" d="M63,86.6H31.4c-0.9,0-1.6,0.7-1.6,1.6c0,0.9,0.7,1.6,1.6,1.6H63c0.9,0,1.6-0.7,1.6-1.6
    C64.6,87.3,63.9,86.6,63,86.6z"/>
</svg>